# xmcd CD database file
#
# Track frame offsets:
#	150
#	23113
#	42412
#	60170
#	78791
#	95167
#	110292
#	127523
#	155156
#	176545
#	210891
#
# Disc length: 3144 seconds
#
# Revision: 3
# Processed by: cddbd v1.5.2PL0 Copyright (c) Steve Scherf et al.
# Submitted via: CDex 1.70beta2
#
DISCID=7b0c460b
DTITLE=Dolly Parton - Live and Well Disc Two
DYEAR=2004
DGENRE=Country
TTITLE0=Halos And Horns
TTITLE1=I'm Gone
TTITLE2=Dagger Through The Heart
TTITLE3=If
TTITLE4=After The Gold Rush
TTITLE5=9 To 5
TTITLE6=Jolene
TTITLE7=Acapella Medley
TTITLE8=We Irish
TTITLE9=Stairway To Heaven
TTITLE10=I Will Always Love You
EXTD=YEAR: 2004
EXTT0=
EXTT1=
EXTT2=
EXTT3=
EXTT4=
EXTT5=
EXTT6=
EXTT7=
EXTT8=
EXTT9=
EXTT10=
PLAYORDER=
